<mxfile host="65bd71144e" modified="2021-03-08T11:07:59.498Z" agent="5.0 (Windows NT 10.0; Win64; x64) AppleWebKit/537.36 (KHTML, like Gecko) Code/1.54.1 Chrome/87.0.4280.141 Electron/11.3.0 Safari/537.36" version="14.2.4" etag="jVziHiYOVfCZDwsjdPQd" type="embed">
    <diagram id="-eXFAZke36wqUJXHRe3i" name="Page-1">
        <mxGraphModel dx="928" dy="740" grid="1" gridSize="10" guides="1" tooltips="1" connect="1" arrows="1" fold="1" page="1" pageScale="1" pageWidth="1169" pageHeight="827" math="0" shadow="0">
            <root>
                <mxCell id="0"/>
                <mxCell id="1" parent="0"/>
                <mxCell id="2" value="Deployment Server" style="verticalAlign=top;align=left;shape=cube;size=10;direction=south;fontStyle=0;html=1;boundedLbl=1;spacingLeft=5;" vertex="1" parent="1">
                    <mxGeometry x="310" y="399" width="350" height="230" as="geometry"/>
                </mxCell>
                <mxCell id="3" value="MainNode" style="verticalAlign=top;align=center;shape=cube;size=10;direction=south;html=1;boundedLbl=1;spacingLeft=5;" vertex="1" parent="2">
                    <mxGeometry width="100" height="80" relative="1" as="geometry">
                        <mxPoint x="10" y="50" as="offset"/>
                    </mxGeometry>
                </mxCell>
                <mxCell id="4" value="ChatNode" style="verticalAlign=top;align=center;shape=cube;size=10;direction=south;html=1;boundedLbl=1;spacingLeft=5;" vertex="1" parent="2">
                    <mxGeometry x="10" y="140" width="100" height="80" as="geometry"/>
                </mxCell>
                <mxCell id="5" value="ImageNode" style="verticalAlign=top;align=center;shape=cube;size=10;direction=south;html=1;boundedLbl=1;spacingLeft=5;" vertex="1" parent="2">
                    <mxGeometry x="120" y="140" width="100" height="80" as="geometry"/>
                </mxCell>
                <mxCell id="6" value="PaintNode" style="verticalAlign=top;align=center;shape=cube;size=10;direction=south;html=1;boundedLbl=1;spacingLeft=5;" vertex="1" parent="2">
                    <mxGeometry x="230" y="140" width="100" height="80" as="geometry"/>
                </mxCell>
                <mxCell id="7" value="External&lt;br&gt;Web Service" style="verticalAlign=top;align=left;shape=cube;size=10;direction=south;fontStyle=0;html=1;boundedLbl=1;spacingLeft=5;" vertex="1" parent="1">
                    <mxGeometry x="710" y="399" width="130" height="140" as="geometry"/>
                </mxCell>
                <mxCell id="8" value="External &lt;br&gt;Image source" style="verticalAlign=top;align=center;shape=cube;size=10;direction=south;html=1;boundedLbl=1;spacingLeft=5;" vertex="1" parent="7">
                    <mxGeometry width="100" height="80" relative="1" as="geometry">
                        <mxPoint x="10" y="50" as="offset"/>
                    </mxGeometry>
                </mxCell>
                <mxCell id="9" value="User machine" style="verticalAlign=top;align=left;shape=cube;size=10;direction=south;fontStyle=0;html=1;boundedLbl=1;spacingLeft=5;" vertex="1" parent="1">
                    <mxGeometry x="310" y="199" width="130" height="140" as="geometry"/>
                </mxCell>
                <mxCell id="10" value="Browser" style="verticalAlign=top;align=center;shape=cube;size=10;direction=south;html=1;boundedLbl=1;spacingLeft=5;" vertex="1" parent="9">
                    <mxGeometry width="100" height="80" relative="1" as="geometry">
                        <mxPoint x="10" y="50" as="offset"/>
                    </mxGeometry>
                </mxCell>
                <mxCell id="11" value="Deployment UML" style="text;strokeColor=none;fillColor=none;html=1;fontSize=24;fontStyle=1;verticalAlign=middle;align=center;" vertex="1" parent="1">
                    <mxGeometry x="480" y="30" width="210" height="40" as="geometry"/>
                </mxCell>
            </root>
        </mxGraphModel>
    </diagram>
</mxfile>